<!--
This work is licensed under a Creative Commons Attribution-ShareAlike 4.0 International License.
-->
<svg
xmlns="http://www.w3.org/2000/svg" viewBox="0 0 1024 1024">
    <defs>
    <style>.HiGold{fill:#000000;}</style>
    </defs>
    <title>by HiGold Community</title>
    <g id="HiGold" data-name="logo">

        <circle cx="512.5" cy="234" r="85"/>
        <circle cx="790" cy="234" r="85"/>

        <path d="
            M 294 294
            A 85 85 0 1 0 174 294
            A 256 160 0 0 1 174 452.5
            A 85 85 0 0 0 174 572.5
            A 256 160 0 0 1 174 731
            A 85 85 0 1 0 294 731
            A 256 160 0 0 1 294 572.5
            A 160 256 0 0 1 452.5 572.5
            A 256 160 0 0 1 452.5 731
            A 85 85 0 1 0  572.5 731
            A 256 160 0 0 1 572.5 572.5
            A 85 85 0 1 0 452.5 452.5
            A 160 256 0 0 1 294 452.5
            A 256 160 0 0 1 294 294
            Z
        "/>

        <path d="
            M 851 572.5
            A 85 85 0 1 0 731 572.5
            A 256 160 0 0 1 731 731
            A 85 85 0 1 0 851 731
            A 256 160 0 0 1 851 572.5
            Z
        "/>

    </g>
</svg>
