<!--
This work is licensed under a Creative Commons Attribution-ShareAlike 4.0 International License.
-->
<svg
xmlns="http://www.w3.org/2000/svg" viewBox="0 0 1024 1024" >
    <defs>
        <style>.HiGold{fill:#000000;}</style>
    </defs>
    <title>by HiGold Community</title>
    <g id="HiGold" data-name="logo">

    <circle cx="312.5" cy="312.5" r="64"/>
    <circle cx="512.5" cy="312.5" r="64"/>
    <circle cx="711.5" cy="312.5" r="64"/>

    <circle cx="312.5" cy="512.5" r="64"/>
    <circle cx="512.5" cy="512.5" r="64"/>
    <circle cx="711.5" cy="512.5" r="64"/>


    <circle cx="312.5" cy="711.5" r="64"/>
    <circle cx="512.5" cy="711.5" r="64"/>
    <circle cx="711.5" cy="711.5" r="64"/>


    <path d="
            M 357.5 357.5
            A 79 79 0 0 0 357.5 467.5
            A 79 79 0 0 0 467.5 467.5
            L 557.5 557.5
            A 79 79 0 0 0 557.5 666.5
            L 467.5 666.5
            A 79 79 0 0 0 467.5 557.5
            A 79 79 0 0 0 357.5 557.5
            A 79 79 0 0 0 357.5 666.5
            L 267.5 666.5
            A 79 79 0 0 0 267.5 557.5
            L 267.5 467.5
            A 79 79 0 0 0 267.5 357.5
            Z
        "/>

    <path d="
            M 666.5 666.5
            A 79 79 0 0 0 666.5 557.5
            L 756.5 557.5
            A 79 79 0 0 0 756.5 666.5
            Z
        "/>

    </g>
</svg>
